HIERARCHY
ROOT Hips
{
 OFFSET 0.000000 0.000000 0.000000
 CHANNELS 6 Xposition Yposition Zposition Yrotation Xrotation Zrotation
 JOINT Chest
 {
  OFFSET 0.000000 9.581000 -0.001100
  CHANNELS 3 Yrotation Xrotation Zrotation
  JOINT Chest2
  {
   OFFSET 0.000000 9.561100 0.002200
   CHANNELS 3 Yrotation Xrotation Zrotation
   JOINT Chest3
   {
    OFFSET 0.000000 9.521100 0.000000
    CHANNELS 3 Yrotation Xrotation Zrotation
    JOINT Chest4
    {
     OFFSET 0.000000 9.511400 0.000000
     CHANNELS 3 Yrotation Xrotation Zrotation
     JOINT Neck
     {
      OFFSET 0.000000 14.375100 0.000000
      CHANNELS 3 Yrotation Xrotation Zrotation
      JOINT Head
      {
       OFFSET 0.000000 8.901200 0.004600
       CHANNELS 3 Yrotation Xrotation Zrotation
       End Site
       {
        OFFSET 0.000000 16.962200 0.002400
       }
      }
     }
     JOINT RightCollar
     {
      OFFSET -2.920100 9.518800 0.000000
      CHANNELS 3 Yrotation Xrotation Zrotation
      JOINT RightShoulder
      {
       OFFSET -13.664500 0.000000 0.000000
       CHANNELS 3 Yrotation Xrotation Zrotation
       JOINT RightElbow
       {
        OFFSET 0.000000 -29.999200 0.000000
        CHANNELS 3 Yrotation Xrotation Zrotation
        JOINT RightWrist
        {
         OFFSET 0.000000 -24.253600 0.000000
         CHANNELS 3 Yrotation Xrotation Zrotation
         End Site
         {
          OFFSET 0.000000 -17.918900 0.000000
         }
        }
       }
      }
     }
     JOINT LeftCollar
     {
      OFFSET 2.920100 9.518800 0.000000
      CHANNELS 3 Yrotation Xrotation Zrotation
      JOINT LeftShoulder
      {
       OFFSET 13.664500 0.000000 0.000000
       CHANNELS 3 Yrotation Xrotation Zrotation
       JOINT LeftElbow
       {
        OFFSET 0.000000 -29.999200 0.000000
        CHANNELS 3 Yrotation Xrotation Zrotation
        JOINT LeftWrist
        {
         OFFSET 0.000000 -24.253600 0.000000
         CHANNELS 3 Yrotation Xrotation Zrotation
         End Site
         {
          OFFSET 0.000000 -17.918900 0.000000
         }
        }
       }
      }
     }
    }
   }
  }
 }
 JOINT RightHip
 {
  OFFSET -7.797300 0.005300 0.000500
  CHANNELS 3 Yrotation Xrotation Zrotation
  JOINT RightKnee
  {
   OFFSET 0.000000 -40.663400 -0.000500
   CHANNELS 3 Yrotation Xrotation Zrotation
   JOINT RightAnkle
   {
    OFFSET 0.000000 -39.523700 -0.000900
    CHANNELS 3 Yrotation Xrotation Zrotation
    JOINT RightToe
    {
     OFFSET 0.000000 -6.418000 14.485300
     CHANNELS 3 Yrotation Xrotation Zrotation
     End Site
     {
      OFFSET 0.000000 -1.465200 6.326400
     }
    }
   }
  }
 }
 JOINT LeftHip
 {
  OFFSET 7.797300 0.005300 0.000500
  CHANNELS 3 Yrotation Xrotation Zrotation
  JOINT LeftKnee
  {
   OFFSET 0.000000 -40.663400 -0.000500
   CHANNELS 3 Yrotation Xrotation Zrotation
   JOINT LeftAnkle
   {
    OFFSET 0.000000 -39.523700 -0.000900
    CHANNELS 3 Yrotation Xrotation Zrotation
    JOINT LeftToe
    {
     OFFSET 0.000000 -6.418000 14.485300
     CHANNELS 3 Yrotation Xrotation Zrotation
     End Site
     {
      OFFSET 0.000000 -1.465200 6.326400
     }
    }
   }
  }
 }
}
MOTION
Frames: 5
Frame Time: 0.008333
-10.011179 126.582577 5.284524 168.799974 -32.233582 -2.771928 2.372404 21.855150 2.143933 0.268200 3.021196 0.236714 0.450433 4.883789 0.393544 1.924072 18.574150 1.741455 3.580264 15.523656 -2.904570 4.470728 -9.278662 -3.922199 -2.088684 -1.986825 1.479925 0.066097 -4.784945 -6.169361 -78.733369 -24.882456 118.924829 -12.298343 6.694183 15.711517 -7.209955 -1.694903 2.074738 -3.385205 -9.358866 6.690182 54.126077 -30.881293 -97.763323 25.596359 -19.357198 -14.994810 3.003625 -50.835339 3.333322 -76.157050 83.669424 -76.532934 9.691580 -24.919895 1.502336 -0.005993 -0.015381 -0.002655 -7.887656 -43.643609 -1.497026 57.504123 82.253733 50.998150 2.746898 -9.893175 2.689904 0.002027 0.002359 0.000898
-10.011528 126.583473 5.286284 168.805482 -32.250348 -2.779789 2.375486 21.855017 2.151371 0.266098 3.027502 0.238264 0.452108 4.878691 0.393626 1.936804 18.539619 1.750605 3.577162 15.548230 -2.894102 4.479111 -9.288224 -3.907716 -2.099771 -1.957604 1.482541 0.058839 -4.795443 -6.190118 -78.740837 -24.882358 118.977745 -12.303992 6.700115 15.695584 -7.221684 -1.681458 2.069852 -3.381924 -9.355630 6.691339 54.159047 -30.921542 -97.791052 25.583979 -19.356276 -14.978042 2.986412 -50.818983 3.336151 -76.152347 83.667375 -76.523848 9.644319 -24.894553 1.513928 -0.006216 -0.009058 -0.002754 -7.889108 -43.625834 -1.497609 57.552527 82.249400 51.045360 2.742275 -9.901583 2.696702 0.001071 0.003856 0.000475
-10.011730 126.583868 5.289256 168.808505 -32.260287 -2.788596 2.380572 21.848242 2.159013 0.267669 3.026642 0.240406 0.447729 4.891046 0.394222 1.942368 18.529487 1.751964 3.578080 15.551040 -2.886585 4.488370 -9.304064 -3.891018 -2.096719 -1.976069 1.500187 0.043868 -4.791764 -6.218282 -78.738410 -24.869851 118.988038 -12.307038 6.709539 15.686216 -7.227112 -1.698560 2.073679 -3.385855 -9.349184 6.694505 54.173065 -30.930582 -97.793224 25.573138 -19.359364 -14.972926 2.967347 -50.807455 3.340941 -76.190372 83.655719 -76.556331 9.644146 -24.894056 1.508192 0.001896 -0.006774 0.000840 -7.878468 -43.617662 -1.506688 57.679504 82.236208 51.184992 2.728588 -9.911290 2.699084 0.001714 0.004679 0.000759
-10.012336 126.584388 5.292181 168.812785 -32.271418 -2.795559 2.384256 21.842360 2.163181 0.273184 3.009630 0.238308 0.442720 4.907591 0.398848 1.940710 18.541967 1.754728 3.583715 15.544522 -2.880186 4.492305 -9.313606 -3.877303 -2.091972 -2.006395 1.515190 0.030299 -4.784937 -6.242319 -78.730565 -24.855329 118.988823 -12.303302 6.719896 15.686487 -7.229298 -1.708538 2.076220 -3.382046 -9.374591 6.706488 54.171530 -30.928497 -97.786050 25.561640 -19.368026 -14.969070 2.936986 -50.789497 3.348606 -76.219068 83.640754 -76.586165 9.651268 -24.902952 1.500729 0.005539 -0.000850 0.002454 -7.866505 -43.612189 -1.521791 57.766821 82.228912 51.285064 2.727498 -9.913344 2.700734 0.001357 0.003353 0.000601
-10.011991 126.587006 5.292154 168.816209 -32.306070 -2.804251 2.388980 21.868297 2.171397 0.276462 3.001194 0.236713 0.452431 4.890920 0.395273 1.941679 18.555861 1.760597 3.602382 15.521316 -2.852450 4.470679 -9.277381 -3.878103 -2.102398 -2.014472 1.536174 0.024704 -4.785532 -6.263778 -78.717092 -24.840885 118.970485 -12.266072 6.736157 15.778313 -7.240528 -1.701168 2.084272 -3.383326 -9.376575 6.709440 54.254407 -31.030157 -97.853055 25.533863 -19.390777 -14.931345 2.867057 -50.738783 3.410900 -76.213548 83.605330 -76.607480 9.616329 -24.933760 1.495998 0.007509 0.002998 0.003327 -7.854489 -43.583629 -1.537449 57.867696 82.223039 51.397056 2.727279 -9.911460 2.700426 0.000838 -0.000134 0.000371
